<!-- sample rectangle -->
<svg width="30" height="30" viewBox="0 0 30 30" fill="none" xmlns="http://www.w3.org/2000/svg">
<path d="M22.5 8.95C22.425 8.9375 22.3375 8.9375 22.2625 8.95C20.5375 8.8875 19.1625 7.475 19.1625 5.725C19.1625 3.9375 20.6 2.5 22.3875 2.5C24.175 2.5 25.6125 3.95 25.6125 5.725C25.6 7.475 24.225 8.8875 22.5 8.95Z" stroke="white" stroke-width="1.5" stroke-linecap="round" stroke-linejoin="round"/>
<path d="M21.2125 18.05C22.925 18.3375 24.8125 18.0375 26.1375 17.15C27.9 15.975 27.9 14.05 26.1375 12.875C24.8 11.9875 22.8875 11.6875 21.175 11.9875" stroke="white" stroke-width="1.5" stroke-linecap="round" stroke-linejoin="round"/>
<path d="M7.46248 8.95C7.53748 8.9375 7.62498 8.9375 7.69998 8.95C9.42498 8.8875 10.8 7.475 10.8 5.725C10.8 3.9375 9.36248 2.5 7.57498 2.5C5.78748 2.5 4.34998 3.95 4.34998 5.725C4.36248 7.475 5.73748 8.8875 7.46248 8.95Z" stroke="white" stroke-width="1.5" stroke-linecap="round" stroke-linejoin="round"/>
<path d="M8.74999 18.05C7.03749 18.3375 5.14999 18.0375 3.82499 17.15C2.06249 15.975 2.06249 14.05 3.82499 12.875C5.16249 11.9875 7.07498 11.6875 8.78748 11.9875" stroke="white" stroke-width="1.5" stroke-linecap="round" stroke-linejoin="round"/>
<path d="M15 18.2874C14.925 18.2749 14.8375 18.2749 14.7625 18.2874C13.0375 18.2249 11.6625 16.8124 11.6625 15.0624C11.6625 13.2749 13.1 11.8374 14.8875 11.8374C16.675 11.8374 18.1125 13.2874 18.1125 15.0624C18.1 16.8124 16.725 18.2374 15 18.2874Z" stroke="white" stroke-width="1.5" stroke-linecap="round" stroke-linejoin="round"/>
<path d="M11.3625 22.225C9.60002 23.4 9.60002 25.3249 11.3625 26.4999C13.3625 27.8375 16.6375 27.8375 18.6375 26.4999C20.4 25.3249 20.4 23.4 18.6375 22.225C16.65 20.9 13.3625 20.9 11.3625 22.225Z" stroke="white" stroke-width="1.5" stroke-linecap="round" stroke-linejoin="round"/>
</svg>
